<svg width="32" height="32" viewBox="0 0 32 32" fill="none" xmlns="http://www.w3.org/2000/svg">
  <rect width="32" height="32" rx="8" fill="#0D0C13"/>
  <defs>
    <linearGradient id="metaFaviconGrad" x1="4" y1="8" x2="28" y2="24" gradientUnits="userSpaceOnUse">
      <stop offset="0%" stopColor="#0064E0" />
      <stop offset="45%" stopColor="#6D5EF0" />
      <stop offset="80%" stopColor="#9C8CFF" />
      <stop offset="100%" stopColor="#00C4FF" />
    </linearGradient>
  </defs>
  <path
    d="M10.1 9C6.8 9 4.2 11.8 4.2 15.6C4.2 19.4 7 22.2 10.3 22.2C13.6 22.2 16 19 17.6 16.7C19.2 19 21.6 22.2 24.9 22.2C28.2 22.2 31 19.4 31 15.6C31 11.8 28.4 9 25.1 9C21.8 9 19.3 12 17.6 14.4C15.9 12 13.4 9 10.1 9ZM10.2 12.2C12.1 12.2 14.1 14.1 15.5 16.1C14 18.2 12.2 18.9 10.3 18.9C8.6 18.9 7.3 17.4 7.3 15.6C7.3 13.7 8.5 12.2 10.2 12.2ZM25 12.2C26.7 12.2 27.9 13.7 27.9 15.6C27.9 17.4 26.6 18.9 24.9 18.9C23 18.9 21.2 18.2 19.7 16.1C21.1 14.1 23.1 12.2 25 12.2Z"
    fill="url(#metaFaviconGrad)"
  />
</svg>
